HIERARCHY
ROOT Hips
{
	OFFSET 0.000000 0.000000 0.000000
	CHANNELS 6 Xposition Yposition Zposition Zrotation Yrotation Xrotation 
	JOINT LHipJoint
	{
		OFFSET 0.000000 0.000000 0.000000
		CHANNELS 3 Zrotation Yrotation Xrotation
		JOINT LeftUpLeg
		{
			OFFSET 1.363060 -1.794630 0.839290
			CHANNELS 3 Zrotation Yrotation Xrotation
			JOINT LeftLeg
			{
				OFFSET 2.448110 -6.726130 0.000000
				CHANNELS 3 Zrotation Yrotation Xrotation
				JOINT LeftFoot
				{
					OFFSET 2.562200 -7.039590 0.000000
					CHANNELS 3 Zrotation Yrotation Xrotation
					JOINT LeftToeBase
					{
						OFFSET 0.157640 -0.433110 2.322550
						CHANNELS 3 Zrotation Yrotation Xrotation
						End Site
						{
							OFFSET 0.000000 0.000000 0.000000
						}
					}
				}
			}
		}
	}
	JOINT RHipJoint
	{
		OFFSET 0.000000 0.000000 0.000000
		CHANNELS 3 Zrotation Yrotation Xrotation
		JOINT RightUpLeg
		{
			OFFSET -1.305520 -1.794630 0.839290
			CHANNELS 3 Zrotation Yrotation Xrotation
			JOINT RightLeg
			{
				OFFSET -2.542530 -6.985550 0.000000
				CHANNELS 3 Zrotation Yrotation Xrotation
				JOINT RightFoot
				{
					OFFSET -2.568260 -7.056230 0.000000
					CHANNELS 3 Zrotation Yrotation Xrotation
					JOINT RightToeBase
					{
						OFFSET -0.164730 -0.452590 2.363150
						CHANNELS 3 Zrotation Yrotation Xrotation
						End Site
						{
							OFFSET 0.000000 0.000000 0.000000
						}
					}
				}
			}
		}
	}
	JOINT LowerBack
	{
		OFFSET 0.000000 0.000000 0.000000
		CHANNELS 3 Zrotation Yrotation Xrotation
		JOINT Spine
		{
			OFFSET 0.028270 2.035590 -0.193380
			CHANNELS 3 Zrotation Yrotation Xrotation
			JOINT Spine1
			{
				OFFSET 0.056720 2.048850 -0.042750
				CHANNELS 3 Zrotation Yrotation Xrotation
				JOINT Neck
				{
					OFFSET 0.000000 0.000000 0.000000
					CHANNELS 3 Zrotation Yrotation Xrotation
					JOINT Neck1
					{
						OFFSET -0.054170 1.746240 0.172020
						CHANNELS 3 Zrotation Yrotation Xrotation
						JOINT Head
						{
							OFFSET 0.104070 1.761360 -0.123970
							CHANNELS 3 Zrotation Yrotation Xrotation
							End Site
							{
								OFFSET 0.000000 0.000000 0.000000
							}
						}
					}
				}
				JOINT LeftShoulder
				{
					OFFSET 0.000000 0.000000 0.000000
					CHANNELS 3 Zrotation Yrotation Xrotation
					JOINT LeftArm
					{
						OFFSET 3.362410 1.200890 -0.311210
						CHANNELS 3 Zrotation Yrotation Xrotation
						JOINT LeftForeArm
						{
							OFFSET 4.983000 -0.000000 -0.000000
							CHANNELS 3 Zrotation Yrotation Xrotation
							JOINT LeftHand
							{
								OFFSET 3.483560 -0.000000 -0.000000
								CHANNELS 3 Zrotation Yrotation Xrotation
								JOINT LeftFingerBase
								{
									OFFSET 0.000000 0.000000 0.000000
									CHANNELS 3 Zrotation Yrotation Xrotation
									JOINT LeftHandIndex1
									{
										OFFSET 0.715260 -0.000000 -0.000000
										CHANNELS 3 Zrotation Yrotation Xrotation
										End Site
										{
											OFFSET 0.000000 0.000000 0.000000
										}
									}
								}
								JOINT LThumb
								{
									OFFSET 0.000000 0.000000 0.000000
									CHANNELS 3 Zrotation Yrotation Xrotation
									End Site
									{
										OFFSET 0.000000 0.000000 0.000000
									}
								}
							}
						}
					}
				}
				JOINT RightShoulder
				{
					OFFSET 0.000000 0.000000 0.000000
					CHANNELS 3 Zrotation Yrotation Xrotation
					JOINT RightArm
					{
						OFFSET -3.136600 1.374050 -0.404650
						CHANNELS 3 Zrotation Yrotation Xrotation
						JOINT RightForeArm
						{
							OFFSET -5.241900 -0.000000 -0.000000
							CHANNELS 3 Zrotation Yrotation Xrotation
							JOINT RightHand
							{
								OFFSET -3.444170 -0.000000 -0.000000
								CHANNELS 3 Zrotation Yrotation Xrotation
								JOINT RightFingerBase
								{
									OFFSET 0.000000 0.000000 0.000000
									CHANNELS 3 Zrotation Yrotation Xrotation
									JOINT RightHandIndex1
									{
										OFFSET -0.622530 -0.000000 -0.000000
										CHANNELS 3 Zrotation Yrotation Xrotation
										End Site
										{
											OFFSET 0.000000 0.000000 0.000000
										}
									}
								}
								JOINT RThumb
								{
									OFFSET 0.000000 0.000000 0.000000
									CHANNELS 3 Zrotation Yrotation Xrotation
									End Site
									{
										OFFSET 0.000000 0.000000 0.000000
									}
								}
							}
						}
					}
				}
			}
		}
	}
}
MOTION
Frames: 8
Frame Time: 0.008333
-4.947918 17.965096 -1.363495 2.590100 8.823423 13.085716 -1.486542 2.061180 1.492664 -15.044724 -10.104279 -16.725410 -0.353581 5.981556 19.065349 -1.827057 9.096371 -2.558290 1.204900 -6.964200 -19.609300 0.598485 -2.455897 1.517848 14.618938 7.447950 -21.823915 -1.806042 -9.683383 29.539801 -0.197755 -3.409539 -14.637802 -0.085500 -1.886200 5.191200 -0.303716 -0.935131 2.001679 3.042977 -1.716165 0.115095 4.981402 -0.387633 0.136481 -12.557559 -7.935769 -10.093335 2.330572 -8.788679 19.064939 2.080300 -5.098300 11.536600 -10.480960 -0.775320 -1.668672 -77.599913 -2.017956 35.130948 20.584558 -33.924280 -7.236245 0.534049 -1.489977 4.009068 1.584877 32.297314 0.534900 -7.125000 0.000000 0.000000 -36.280600 59.888900 -14.303200 9.267180 2.077709 -0.917577 65.248572 8.970124 24.892400 -20.078830 27.427353 -5.788422 0.776297 -0.067571 7.754079 -18.433973 -2.202573 0.777600 7.125000 0.000000 0.000000 5.947700 -32.305500 1.857100 
-4.951725 17.966399 -1.372713 2.714147 9.034061 13.204826 -1.485169 2.047665 1.478436 -15.136805 -10.160840 -16.830836 -0.365890 5.954439 18.985771 -1.802991 8.993099 -2.422946 1.218000 -7.000500 -19.716800 0.591419 -2.445355 1.511742 14.506675 7.348467 -22.009366 -1.818412 -9.714300 29.611771 -0.195648 -3.440927 -14.684638 -0.085900 -1.890900 5.204300 -0.295699 -0.869805 2.084238 3.010066 -1.629424 0.117418 4.941129 -0.340391 0.097091 -12.401744 -7.628379 -10.427087 2.118746 -8.335245 19.793942 2.022500 -4.916600 11.799000 -10.473200 -0.802754 -1.660568 -77.573221 -2.212973 35.505404 20.650463 -33.990168 -7.273204 0.534407 -1.487989 3.917382 1.610233 32.275769 0.549800 -7.125000 0.000000 0.000000 -36.231000 59.877300 -14.270200 9.266586 2.063901 -0.920173 65.163300 9.169319 24.741022 -20.149916 27.501274 -5.828825 0.789524 -0.093535 7.890033 -18.879592 -2.034884 0.729700 7.125000 0.000000 0.000000 5.561800 -32.115500 1.761100 
-4.956434 17.964996 -1.381129 2.688216 9.219624 13.282538 -1.481811 2.033526 1.464823 -15.054486 -10.213176 -16.992903 -0.366996 5.958559 18.979924 -1.783300 8.905703 -2.280806 1.247400 -7.081200 -19.956200 0.592438 -2.438147 1.507464 14.551935 7.426109 -22.077314 -1.819159 -9.717388 29.625920 -0.188947 -3.538834 -14.845848 -0.090100 -1.936400 5.330000 -0.207304 -0.805136 2.188388 3.036545 -1.539177 0.086994 4.932750 -0.287986 0.001882 -12.281618 -7.302290 -10.509247 1.919174 -7.874836 20.316831 1.989400 -4.737100 11.943000 -10.466705 -0.822424 -1.658555 -77.598801 -2.221581 35.846152 20.782055 -34.130624 -7.344942 0.527938 -1.491039 3.903845 1.849459 32.482537 0.690200 -7.125000 0.000000 0.000000 -36.212400 60.105700 -14.462200 9.261913 2.048762 -0.925270 65.014887 9.190949 24.803806 -20.291102 27.660487 -5.900765 0.782001 -0.061289 7.859841 -18.531853 -2.363432 0.841200 7.125000 0.000000 0.000000 5.878800 -32.486000 1.809700 
-4.960142 17.964896 -1.387040 2.713640 9.401864 13.381795 -1.479825 2.020736 1.450649 -15.025667 -10.330931 -17.102996 -0.364989 5.966636 18.995668 -1.766841 8.834803 -2.207223 1.250900 -7.090900 -19.984900 0.588827 -2.430098 1.502948 14.556245 7.379266 -22.214944 -1.817513 -9.721155 29.626844 -0.171638 -3.629630 -14.870354 -0.085900 -1.890400 5.202800 -0.183432 -0.777183 2.262925 3.078636 -1.500826 0.070619 4.978564 -0.263801 -0.046203 -12.185242 -6.986134 -10.722182 1.683996 -7.398495 20.950657 1.940800 -4.558400 12.156000 -10.458450 -0.845094 -1.654764 -77.700822 -2.281214 36.017818 20.883236 -34.236362 -7.402570 0.522853 -1.490185 3.900918 2.035409 32.508980 0.797600 -7.125000 0.000000 0.000000 -36.055000 60.172800 -14.447600 9.262306 2.032391 -0.929597 64.777460 9.312620 25.047333 -20.414955 27.796872 -5.962808 0.782355 -0.021664 7.660646 -18.221029 -2.807436 0.991600 7.125000 0.000000 0.000000 6.173900 -32.982900 1.827000 
-4.961244 17.964896 -1.388242 2.819714 9.535309 13.506476 -1.473158 2.004977 1.434167 -15.120081 -10.358660 -17.246586 -0.356067 5.990577 19.063977 -1.729247 8.679987 -2.161962 1.235300 -7.048100 -19.858000 0.582716 -2.419792 1.498919 14.455790 7.221526 -22.388994 -1.809736 -9.718286 29.590660 -0.150741 -3.664351 -14.719704 -0.080500 -1.830700 5.037900 -0.129307 -0.695011 2.242027 3.011893 -1.393462 0.100187 4.861209 -0.209159 0.000867 -12.041132 -6.783981 -10.954980 1.542727 -7.099885 21.564858 1.892600 -4.440000 12.389500 -10.449268 -0.862760 -1.648007 -77.599064 -2.403685 36.417476 21.021039 -34.386087 -7.489072 0.521186 -1.483269 3.810006 2.147262 32.266979 0.857000 -7.125000 0.000000 0.000000 -35.685900 60.000700 -14.127400 9.255658 2.022208 -0.929384 64.690765 9.441907 25.071253 -20.583697 27.981649 -6.052331 0.789043 -0.010196 7.480635 -18.282034 -2.955327 1.049700 7.125000 0.000000 0.000000 6.134100 -33.150400 1.790100 
-4.963748 17.962692 -1.390647 2.761631 9.713381 13.576289 -1.465997 1.993031 1.422308 -15.022128 -10.384227 -17.377540 -0.348933 6.013350 19.117576 -1.698444 8.548950 -2.120159 1.221400 -7.009900 -19.744700 0.585681 -2.414037 1.496959 14.522848 7.190287 -22.447832 -1.803139 -9.707613 29.557872 -0.177311 -3.573106 -14.793183 -0.107900 -2.118000 5.831900 0.040700 -0.592188 2.218946 2.999400 -1.255039 0.157878 4.746640 -0.138629 0.082575 -11.877004 -6.584142 -11.150914 1.343768 -6.804342 22.140994 1.821100 -4.328300 12.599900 -10.440303 -0.885880 -1.638036 -77.568422 -2.581631 36.767554 21.150130 -34.521151 -7.565836 0.508616 -1.479369 3.814947 2.567428 32.096114 1.092500 -7.125000 0.000000 0.000000 -35.089500 59.963400 -13.822800 9.253475 2.011740 -0.926920 64.584017 9.660770 24.945263 -20.684542 28.085436 -6.105152 0.790686 -0.000526 7.294425 -18.251233 -3.045426 1.081400 7.125000 0.000000 0.000000 6.167100 -33.251700 1.784700 
-4.970261 17.963192 -1.392651 2.686223 9.887281 13.639989 -1.460762 1.980179 1.409176 -14.878702 -10.444450 -17.513666 -0.343258 6.034044 19.159492 -1.683228 8.483355 -2.083729 1.218400 -7.001600 -19.720200 0.591830 -2.410196 1.494252 14.629937 7.292574 -22.456966 -1.793814 -9.693478 29.524713 -0.178365 -3.679048 -15.060309 -0.113700 -2.174300 5.987600 0.118824 -0.532976 2.189400 3.031944 -1.178272 0.213442 4.746056 -0.098802 0.176708 -11.680593 -6.291869 -11.267093 1.106398 -6.390670 22.572524 1.753200 -4.167700 12.725600 -10.428565 -0.911597 -1.630950 -77.589014 -2.657659 36.912330 21.344114 -34.727986 -7.686278 0.506988 -1.472715 3.933015 2.585342 31.914047 1.096400 -7.125000 0.000000 0.000000 -34.880800 59.812700 -13.600400 9.250601 1.994007 -0.928239 64.455809 9.884412 24.978410 -20.825315 28.234889 -6.178118 0.778159 0.004647 7.143565 -18.088245 -2.959904 1.042200 7.125000 0.000000 0.000000 6.302200 -33.158700 1.838400 
-4.976372 17.964395 -1.395456 2.680935 10.022997 13.748987 -1.455845 1.962172 1.395028 -14.829356 -10.425411 -17.687345 -0.342798 6.042876 19.172631 -1.645793 8.326379 -2.044318 1.215500 -6.993700 -19.696600 0.593847 -2.403903 1.487203 14.641136 7.441291 -22.505708 -1.786376 -9.686963 29.504741 -0.159853 -3.853582 -15.273295 -0.108300 -2.121900 5.842700 0.110445 -0.497827 2.114338 3.060193 -1.139067 0.290364 4.787810 -0.079527 0.332136 -11.431371 -5.984861 -11.526238 0.803949 -5.942234 23.045915 1.650700 -3.995000 12.891100 -10.413822 -0.945105 -1.620841 -77.631958 -2.806053 36.918127 21.510698 -34.903301 -7.793775 0.507172 -1.463378 4.029023 2.548004 31.596931 1.065300 -7.125000 0.000000 0.000000 -34.592700 59.535700 -13.238000 9.251080 1.972053 -0.930279 64.354486 10.248419 24.972151 -20.946513 28.354655 -6.240904 0.776874 -0.009718 7.348153 -18.228852 -2.842944 1.006400 7.125000 0.000000 0.000000 6.176600 -33.027800 1.821000 
